<svg xmlns="http://www.w3.org/2000/svg" width="45" height="44.999" viewBox="0 0 45 44.999">
  <g id="testimonial" transform="translate(0 -0.005)">
    <g id="Group_14" data-name="Group 14" transform="translate(4.746 0.005)">
      <g id="Group_13" data-name="Group 13">
        <path id="Path_47" data-name="Path 47" d="M60.14,6.3h-1.6c.241-1.781,1.225-1.87,1.678-1.912a.879.879,0,0,0,.8-.875V.884A.879.879,0,0,0,60.09.006C57.312.162,54,1.565,54,7.36v4.574a1.386,1.386,0,0,0,1.385,1.385H60.14a1.386,1.386,0,0,0,1.385-1.385V7.685A1.386,1.386,0,0,0,60.14,6.3Zm-.373,5.26H55.758V7.36c0-4.044,1.8-5.173,3.5-5.492v.924c-1.177.358-2.532,1.416-2.532,4.387a.879.879,0,0,0,.879.879h2.159Z" transform="translate(-54 -0.005)" fill="#178a1f"/>
      </g>
    </g>
    <g id="Group_16" data-name="Group 16" transform="translate(13.732 0.005)">
      <g id="Group_15" data-name="Group 15">
        <path id="Path_48" data-name="Path 48" d="M162.374,6.3h-1.6c.241-1.781,1.225-1.87,1.678-1.912a.879.879,0,0,0,.8-.875V.884a.879.879,0,0,0-.928-.877c-2.778.156-6.09,1.559-6.09,7.354v4.574a1.386,1.386,0,0,0,1.385,1.385h4.755a1.386,1.386,0,0,0,1.385-1.385V7.685A1.386,1.386,0,0,0,162.374,6.3ZM162,11.561h-4.009V7.36c0-4.044,1.8-5.173,3.5-5.492v.924c-1.177.358-2.532,1.416-2.532,4.387a.879.879,0,0,0,.879.879H162v3.5Z" transform="translate(-156.234 -0.005)" fill="#178a1f"/>
      </g>
    </g>
    <g id="Group_18" data-name="Group 18" transform="translate(23.555 6.848)">
      <g id="Group_17" data-name="Group 17">
        <path id="Path_49" data-name="Path 49" d="M269.5,78.123a.878.878,0,1,0,.258.621A.886.886,0,0,0,269.5,78.123Z" transform="translate(-268 -77.865)" fill="#178a1f"/>
      </g>
    </g>
    <g id="Group_20" data-name="Group 20" transform="translate(0 6.848)">
      <g id="Group_19" data-name="Group 19">
        <path id="Path_50" data-name="Path 50" d="M29.379,77.864H28.271a.879.879,0,0,0,0,1.758h1.108a13.865,13.865,0,0,1,2.86,27.43.879.879,0,0,0-.7.86v5.107l-5.414-5.414a.879.879,0,0,0-.621-.257H15.621A13.867,13.867,0,0,1,3.5,86.757.879.879,0,0,0,1.961,85.9a15.625,15.625,0,0,0,13.66,23.2h9.521l6.656,6.656a.879.879,0,0,0,1.5-.621v-6.532a15.623,15.623,0,0,0-3.92-30.745Z" transform="translate(0 -77.864)" fill="#178a1f"/>
      </g>
    </g>
    <g id="Group_22" data-name="Group 22" transform="translate(10.805 15.604)">
      <g id="Group_21" data-name="Group 21">
        <path id="Path_51" data-name="Path 51" d="M145.448,177.492H123.816a.879.879,0,0,0,0,1.758h21.632a.879.879,0,1,0,0-1.758Z" transform="translate(-122.937 -177.492)" fill="#178a1f"/>
      </g>
    </g>
    <g id="Group_24" data-name="Group 24" transform="translate(10.805 20.292)">
      <g id="Group_23" data-name="Group 23">
        <path id="Path_52" data-name="Path 52" d="M145.448,230.825H123.816a.879.879,0,1,0,0,1.758h21.632a.879.879,0,1,0,0-1.758Z" transform="translate(-122.937 -230.825)" fill="#178a1f"/>
      </g>
    </g>
    <g id="Group_26" data-name="Group 26" transform="translate(10.805 24.979)">
      <g id="Group_25" data-name="Group 25">
        <path id="Path_53" data-name="Path 53" d="M145.448,284.158H123.816a.879.879,0,0,0,0,1.758h21.632a.879.879,0,1,0,0-1.758Z" transform="translate(-122.937 -284.158)" fill="#178a1f"/>
      </g>
    </g>
    <g id="Group_28" data-name="Group 28" transform="translate(20.907 29.667)">
      <g id="Group_27" data-name="Group 27">
        <path id="Path_54" data-name="Path 54" d="M250.28,337.492H238.75a.879.879,0,1,0,0,1.758H250.28a.879.879,0,0,0,0-1.758Z" transform="translate(-237.871 -337.492)" fill="#178a1f"/>
      </g>
    </g>
    <g id="Group_30" data-name="Group 30" transform="translate(15.947 29.667)">
      <g id="Group_29" data-name="Group 29">
        <path id="Path_55" data-name="Path 55" d="M182.339,337.491h-.014a.879.879,0,1,0,0,1.758h.014a.879.879,0,1,0,0-1.758Z" transform="translate(-181.446 -337.491)" fill="#178a1f"/>
      </g>
    </g>
  </g>
</svg>
