<svg xmlns="http://www.w3.org/2000/svg" width="45.258" height="56.298" viewBox="0 0 45.258 56.298">
  <g id="XMLID_2590_" transform="translate(-50.202)">
    <g id="XMLID_212_" transform="translate(50.201 0)">
      <path id="XMLID_215_" d="M95.312,48.526,85.833,32.108a18.693,18.693,0,1,0-26.005,0L50.349,48.526a1.1,1.1,0,0,0,1.238,1.612l7.307-1.969,1.949,7.312a1.1,1.1,0,0,0,2.015.267L72.83,38.475,82.8,55.748a1.1,1.1,0,0,0,2.015-.267l1.949-7.312,7.307,1.969a1.1,1.1,0,0,0,1.238-1.611ZM56.337,18.693A16.494,16.494,0,1,1,72.83,35.186,16.512,16.512,0,0,1,56.337,18.693Zm5.946,33.653-1.548-5.808a1.1,1.1,0,0,0-1.349-.779l-5.8,1.564,7.941-13.754a18.6,18.6,0,0,0,9.449,3.725Zm23.991-6.587a1.1,1.1,0,0,0-1.349.779l-1.548,5.808-8.69-15.052a18.6,18.6,0,0,0,9.449-3.725l7.941,13.755Z" transform="translate(-50.201 0)" fill="#178a1f"/>
      <path id="XMLID_885_" d="M192.557,109.082a1.967,1.967,0,0,0,.5,2.029l1.758,1.713-.414,2.42a1.977,1.977,0,0,0,2.872,2.086l2.173-1.143,2.173,1.142a1.979,1.979,0,0,0,2.871-2.087l-.416-2.42,1.758-1.714a1.979,1.979,0,0,0-1.1-3.376l-2.43-.352-1.087-2.2a1.967,1.967,0,0,0-1.775-1.1h0a1.967,1.967,0,0,0-1.775,1.1l-1.086,2.2-2.429.354A1.968,1.968,0,0,0,192.557,109.082Zm4.916.392a1.1,1.1,0,0,0,.828-.6l1.144-2.321,1.146,2.32a1.1,1.1,0,0,0,.828.6l2.561.371-1.852,1.807a1.1,1.1,0,0,0-.316.973l.438,2.55-2.291-1.2a1.1,1.1,0,0,0-1.023,0l-2.29,1.2.437-2.55a1.1,1.1,0,0,0-.316-.973l-1.853-1.806Z" transform="translate(-176.817 -92.631)" fill="#178a1f"/>
      <path id="XMLID_887_" d="M143.855,79.407a13.857,13.857,0,0,0,5.288-26.664,1.1,1.1,0,0,0-.84,2.032,11.655,11.655,0,1,1-8.873-.01,1.1,1.1,0,0,0-.835-2.034,13.857,13.857,0,0,0,5.26,26.675Z" transform="translate(-121.226 -46.86)" fill="#178a1f"/>
      <path id="XMLID_888_" d="M247.23,46.2a1.1,1.1,0,1,0-.777-.322A1.108,1.108,0,0,0,247.23,46.2Z" transform="translate(-224.586 -39.162)" fill="#178a1f"/>
    </g>
  </g>
</svg>
