<svg xmlns="http://www.w3.org/2000/svg" width="45.708" height="37.495" viewBox="0 0 45.708 37.495">
  <g id="stadium" transform="translate(0 -46)">
    <g id="Group_10" data-name="Group 10" transform="translate(21.961 74.568)">
      <g id="Group_9" data-name="Group 9">
        <path id="Path_45" data-name="Path 45" d="M246.893,366a.893.893,0,1,0,.893.893A.893.893,0,0,0,246.893,366Z" transform="translate(-246 -366)" fill="#178a1f"/>
      </g>
    </g>
    <g id="Group_12" data-name="Group 12" transform="translate(0 46)">
      <g id="Group_11" data-name="Group 11" transform="translate(0 0)">
        <path id="Path_46" data-name="Path 46" d="M40.084,56.95V53.142h.893a4.465,4.465,0,0,0,4.464-4.464.893.893,0,0,0-.893-.893H39.191a.893.893,0,0,0-.893.893v7.8a60.091,60.091,0,0,0-9.318-1.334c-1.71-.123-3.468-.193-5.234-.211V51.356h.893A4.465,4.465,0,0,0,29.1,46.893.893.893,0,0,0,28.211,46H22.854a.893.893,0,0,0-.893.893v8.041c-1.766.018-3.524.088-5.234.211A60.1,60.1,0,0,0,7.41,56.478V53.142H8.3a4.465,4.465,0,0,0,4.464-4.464.893.893,0,0,0-.893-.893H6.517a.893.893,0,0,0-.893.893V56.95C1.892,58.059,0,59.48,0,61.177V77.246C0,78.6,1.215,79.79,3.61,80.772c3.85,1.578,9.646,2.291,13.831,2.554,1.772.112,3.594.169,5.413.169s3.64-.057,5.412-.169c4.139-.26,9.969-.971,13.832-2.554,2.4-.982,3.61-2.168,3.61-3.526V61.177C45.708,59.48,43.816,58.059,40.084,56.95Zm0-7.379H43.5a2.685,2.685,0,0,1-2.526,1.785h-.893ZM23.747,47.785h3.419a2.685,2.685,0,0,1-2.526,1.785h-.893ZM7.41,49.571h3.419A2.685,2.685,0,0,1,8.3,51.356H7.41Zm22,7.4a58.854,58.854,0,0,1,7.924,1.121l-3.962,2.83c-1.841-.254-3.966-.438-6.236-.54Zm-6.557-.255c1.512,0,3.021.04,4.5.119l-2.318,3.477c-1.441-.032-2.928-.032-4.368,0l-2.318-3.477C19.833,56.753,21.342,56.713,22.854,56.713Zm-6.557.255,2.274,3.411c-2.27.1-4.4.286-6.237.539L8.373,58.089A58.867,58.867,0,0,1,16.3,56.968Zm-10.185,1.7L9.853,61.34a16.446,16.446,0,0,0-2.111.571c-.791.283-1.838.756-2.05,1.647-3.025-.96-3.906-1.93-3.906-2.381S2.711,59.681,6.112,58.668Zm4.869,22.16c-6.677-1.078-9.2-2.744-9.2-3.582V74.469a11.091,11.091,0,0,0,1.849.938,34.618,34.618,0,0,0,7.346,1.859Zm0-5.37a32.2,32.2,0,0,1-6.673-1.7c-1.862-.758-2.522-1.478-2.522-1.864V69.128a10.977,10.977,0,0,0,1.824.931,34.19,34.19,0,0,0,7.371,1.863Zm0-5.342c-6.677-1.078-9.2-2.744-9.2-3.582V63.778A19.4,19.4,0,0,0,7.926,66c.953.211,1.978.4,3.054.571ZM16.6,81.478c-1.325-.1-2.61-.23-3.839-.391V77.521c1.231.159,2.515.289,3.839.388Zm.1-5.352c-1.362-.1-2.681-.238-3.939-.405V72.174c1.849.235,3.811.4,5.826.5-.031.029-.062.056-.092.085A6.214,6.214,0,0,0,16.705,76.126Zm-3.939-5.752V66.818a80.584,80.584,0,0,0,9.2.6v3.571A78.368,78.368,0,0,1,12.766,70.375ZM27.318,81.592c-1.177.062-2.372.1-3.571.111V79.031a.893.893,0,0,0-1.785,0V81.7c-1.2-.012-2.394-.049-3.571-.111V77.246c0-.047,0-.094,0-.141a4.464,4.464,0,0,1,8.923,0q0,.07,0,.14v4.346Zm5.624-.5c-1.229.161-2.514.291-3.839.391V77.909c1.324-.1,2.608-.23,3.839-.388Zm0-5.367c-1.258.167-2.577.3-3.94.405a6.227,6.227,0,0,0-1.729-3.3c-.051-.051-.1-.1-.156-.149,2.015-.1,3.977-.269,5.825-.5Zm0-5.347a78.343,78.343,0,0,1-9.2.617V67.421a80.522,80.522,0,0,0,9.2-.6ZM22.854,65.64a78.036,78.036,0,0,1-10.848-.726c-1.2-.172-2.345-.374-3.4-.6a.894.894,0,0,0-.164-.081,5.219,5.219,0,0,1-.775-.349c2.369-1.29,9.829-1.7,12.557-1.779,1.724-.048,3.534-.048,5.259,0a70.05,70.05,0,0,1,8.017.635,14.643,14.643,0,0,1,4.535,1.146,6.157,6.157,0,0,1-1.1.464c-1.013.213-2.1.4-3.231.563A77.924,77.924,0,0,1,22.854,65.64ZM43.923,77.246c0,.838-2.518,2.5-9.2,3.582V77.266a34.617,34.617,0,0,0,7.346-1.859,11.085,11.085,0,0,0,1.849-.938Zm0-5.356c0,.386-.661,1.106-2.522,1.864a32.2,32.2,0,0,1-6.673,1.7V71.922A34.187,34.187,0,0,0,42.1,70.059a10.985,10.985,0,0,0,1.824-.931Zm0-5.356c0,.838-2.518,2.5-9.2,3.582V66.566c2.739-.428,6.884-1.281,9.2-2.786ZM40.011,63.56c-.213-.9-1.288-1.382-2.1-1.668a16.672,16.672,0,0,0-2.054-.551L39.6,58.668c3.4,1.013,4.326,2.045,4.326,2.508S43.033,62.6,40.011,63.56Z" transform="translate(0 -46)" fill="#178a1f"/>
      </g>
    </g>
  </g>
</svg>
